<svg width="33" height="33" viewBox="0 0 33 33" fill="none" xmlns="http://www.w3.org/2000/svg">
<path d="M21.6646 14.6246C21.6646 14.8898 21.5592 15.1441 21.3717 15.3317C21.1841 15.5192 20.9298 15.6246 20.6646 15.6246H12.6646C12.3993 15.6246 12.145 15.5192 11.9574 15.3317C11.7699 15.1441 11.6646 14.8898 11.6646 14.6246C11.6646 14.3593 11.7699 14.105 11.9574 13.9174C12.145 13.7299 12.3993 13.6246 12.6646 13.6246H20.6646C20.9298 13.6246 21.1841 13.7299 21.3717 13.9174C21.5592 14.105 21.6646 14.3593 21.6646 14.6246ZM20.6646 17.6246H12.6646C12.3993 17.6246 12.145 17.7299 11.9574 17.9174C11.7699 18.105 11.6646 18.3593 11.6646 18.6246C11.6646 18.8898 11.7699 19.1441 11.9574 19.3317C12.145 19.5192 12.3993 19.6246 12.6646 19.6246H20.6646C20.9298 19.6246 21.1841 19.5192 21.3717 19.3317C21.5592 19.1441 21.6646 18.8898 21.6646 18.6246C21.6646 18.3593 21.5592 18.105 21.3717 17.9174C21.1841 17.7299 20.9298 17.6246 20.6646 17.6246ZM29.6646 16.6246C29.665 18.869 29.0844 21.0753 27.9793 23.0287C26.8741 24.9822 25.282 26.6162 23.3579 27.7718C21.4339 28.9274 19.2434 29.5652 16.9997 29.6231C14.7561 29.6809 12.5356 29.1569 10.5546 28.1021L6.2983 29.5208C5.94591 29.6383 5.56775 29.6554 5.20621 29.5701C4.84467 29.4847 4.51403 29.3004 4.25136 29.0377C3.98869 28.7751 3.80437 28.4444 3.71905 28.0829C3.63373 27.7214 3.65078 27.3432 3.7683 26.9908L5.18705 22.7346C4.25974 20.9911 3.7418 19.0593 3.67255 17.0858C3.6033 15.1122 3.98456 13.1489 4.78739 11.3447C5.59022 9.54055 6.79352 7.94298 8.30595 6.67329C9.81838 5.4036 11.6002 4.49515 13.5161 4.01689C15.4321 3.53864 17.4318 3.50316 19.3635 3.91314C21.2952 4.32311 23.1081 5.16778 24.6647 6.38301C26.2212 7.59825 27.4804 9.15212 28.3467 10.9267C29.2131 12.7012 29.6637 14.6498 29.6646 16.6246ZM27.6646 16.6246C27.6641 14.9372 27.2754 13.2726 26.5287 11.7595C25.7819 10.2464 24.6971 8.92534 23.3581 7.89859C22.0191 6.87184 20.4618 6.16689 18.8068 5.83828C17.1517 5.50968 15.4433 5.56622 13.8136 6.00355C12.1839 6.44087 10.6767 7.24725 9.40849 8.36029C8.14032 9.47333 7.1452 10.8632 6.50013 12.4224C5.85506 13.9816 5.57732 15.6682 5.68842 17.3519C5.79951 19.0356 6.29646 20.6712 7.1408 22.132C7.21167 22.2547 7.25567 22.391 7.26989 22.5319C7.28411 22.6729 7.26823 22.8152 7.2233 22.9496L5.66455 27.6245L10.3396 26.0658C10.4414 26.0311 10.5482 26.0133 10.6558 26.0133C10.8314 26.0136 11.0039 26.0602 11.1558 26.1483C12.8281 27.1158 14.7256 27.6259 16.6576 27.6271C18.5896 27.6283 20.4878 27.1207 22.1613 26.1553C23.8347 25.1898 25.2244 23.8007 26.1905 22.1276C27.1566 20.4545 27.665 18.5565 27.6646 16.6246Z" fill="#A855F7"/>
</svg>
