<svg width="33" height="33" viewBox="0 0 33 33" fill="none" xmlns="http://www.w3.org/2000/svg">
<path d="M22.9146 4.625C20.3333 4.625 18.0733 5.735 16.6646 7.61125C15.2558 5.735 12.9958 4.625 10.4146 4.625C8.35983 4.62732 6.38994 5.44458 4.93703 6.89748C3.48413 8.35039 2.66687 10.3203 2.66455 12.375C2.66455 21.125 15.6383 28.2075 16.1908 28.5C16.3364 28.5783 16.4992 28.6193 16.6646 28.6193C16.8299 28.6193 16.9927 28.5783 17.1383 28.5C17.6908 28.2075 30.6646 21.125 30.6646 12.375C30.6622 10.3203 29.845 8.35039 28.3921 6.89748C26.9392 5.44458 24.9693 4.62732 22.9146 4.625ZM16.6646 26.475C14.3821 25.145 4.66455 19.0863 4.66455 12.375C4.66654 10.8506 5.27297 9.38923 6.35088 8.31133C7.42878 7.23342 8.89017 6.62698 10.4146 6.625C12.8458 6.625 14.8871 7.92 15.7396 10C15.8149 10.1834 15.9431 10.3403 16.1078 10.4507C16.2725 10.5611 16.4663 10.62 16.6646 10.62C16.8628 10.62 17.0566 10.5611 17.2213 10.4507C17.386 10.3403 17.5142 10.1834 17.5896 10C18.442 7.91625 20.4833 6.625 22.9146 6.625C24.4389 6.62698 25.9003 7.23342 26.9782 8.31133C28.0561 9.38923 28.6626 10.8506 28.6646 12.375C28.6646 19.0763 18.9446 25.1438 16.6646 26.475Z" fill="white"/>
</svg>
